<svg width="108" height="134" viewBox="0 0 108 134" fill="none" xmlns="http://www.w3.org/2000/svg">
<path d="M85.6565 87.6649L96.9779 82.9153C109.395 116.419 49.5797 141.308 34.4489 109.148L45.9445 104.325C45.9445 104.325 51.644 117.911 71.5 109.581C91.356 101.251 85.6565 87.6649 85.6565 87.6649Z" fill="black"/>
<path d="M80.9155 76.364L92.2369 71.6144C77.0332 39.2799 17.3641 64.5173 29.708 97.8468L41.2036 93.0242C41.2036 93.0242 35.504 79.4384 55.36 71.1084C75.216 62.7783 80.9155 76.364 80.9155 76.364Z" fill="black"/>
<path d="M61.84 30.0481L73.1614 25.2985C57.9576 -7.03601 -1.71148 18.2013 10.6324 51.5309L22.128 46.7082C22.128 46.7082 16.4285 33.1225 36.2845 24.7925C56.1405 16.4624 61.84 30.0481 61.84 30.0481Z" fill="black"/>
<rect x="73.0521" y="25.1433" width="88.3928" height="12.1131" transform="rotate(67.2408 73.0521 25.1433)" fill="black"/>
</svg>
