<svg width="124" height="135" viewBox="0 0 124 135" fill="none" xmlns="http://www.w3.org/2000/svg">
<path d="M3 132H121V75L102.562 87.887L83.6641 75L64.7656 87.887L43.5625 75L24.2031 87.887L3 75V132Z" fill="black"/>
<path fill-rule="evenodd" clip-rule="evenodd" d="M124 69.2432V135H0V69.6662L24.1299 84.332L43.4893 71.445L64.6722 84.3197L83.6641 71.3691L102.541 84.2417L124 69.2432ZM6 80.3342V129H118V80.7572L102.584 91.5326L83.6641 78.6313L64.859 91.4546L43.6357 78.5553L24.2764 91.4423L6 80.3342Z" fill="black"/>
<path d="M121 3H3V49.2167L24.2031 62L43.5625 49.2167L64.7656 62L83.6641 49.2167L102.562 62L121 49.2167V3Z" fill="black"/>
<path fill-rule="evenodd" clip-rule="evenodd" d="M0 0H124V50.7872L102.583 65.636L83.6641 52.8385L64.8585 65.5591L43.6353 52.7636L24.2759 65.547L0 50.911V0ZM6 6V47.5223L24.1303 58.4531L43.4897 45.6697L64.6727 58.441L83.6641 45.5948L102.542 58.364L118 47.6461V6H6Z" fill="black"/>
</svg>
