<svg width="145" height="130" viewBox="0 0 145 130" fill="none" xmlns="http://www.w3.org/2000/svg">
<path d="M104.975 4.99999L140.801 57.4658L111.333 77.5883L76.9683 101.054L42.6039 124.519L6.77783 72.0537L41.7198 48.1937L76.6617 24.3337L104.975 4.99999Z" fill="black"/>
<path fill-rule="evenodd" clip-rule="evenodd" d="M2.60864 71.2676L105.761 0.830361L144.971 58.2511L41.8182 128.688L2.60864 71.2676ZM10.9471 72.8391L43.3897 120.35L72.8262 100.249L40.9067 52.3813L10.9471 72.8391ZM45.862 48.9976L77.7815 96.8655L107.217 76.7653L75.8209 28.5402L45.862 48.9976ZM80.7771 25.1559L112.174 73.381L136.632 56.6796L104.189 9.16885L80.7771 25.1559Z" fill="black"/>
<path fill-rule="evenodd" clip-rule="evenodd" d="M113.155 79.9465L75.1178 21.5221L80.1461 18.2484L118.183 76.6729L113.155 79.9465ZM41.7939 44.3972L80.4642 102.389L75.4723 105.718L36.8019 47.7259L41.7939 44.3972Z" fill="white"/>
<path fill-rule="evenodd" clip-rule="evenodd" d="M142 130H0V124H142V130Z" fill="black"/>
</svg>
