<svg width="88" height="79" viewBox="0 0 88 79" fill="none" xmlns="http://www.w3.org/2000/svg">
<path d="M26.2539 75.8826L3.46108 41.7717L25.173 27.2638L43.2596 15.1784L61.3461 3.093L84.139 37.2038L66.266 49.1465L48.3931 61.0892L26.2539 75.8826Z" fill="white"/>
<path fill-rule="evenodd" clip-rule="evenodd" d="M25.6406 78.9666L0.377345 41.1585L61.9596 0.00933336L87.2229 37.8174L25.6406 78.9666ZM26.8674 72.7989L45.286 60.4916L24.5828 30.3324L6.545 42.3853L26.8674 72.7989ZM28.2803 27.8618L48.9835 58.0209L63.1707 48.5411L42.6579 18.2547L28.2803 27.8618ZM46.3551 15.7842L66.8679 46.0706L81.0552 36.5906L60.7329 6.17699L46.3551 15.7842Z" fill="black"/>
<path fill-rule="evenodd" clip-rule="evenodd" d="M84.8107 78.3933H1.5318V74.6877H84.8107V78.3933Z" fill="black"/>
</svg>
