<svg width="112" height="135" viewBox="0 0 112 135" fill="none" xmlns="http://www.w3.org/2000/svg">
<path d="M50.7443 135C40.4746 135 31.4736 131.932 23.7411 125.795C16.1294 119.659 10.2697 111.477 6.16181 101.25C2.05394 90.9024 0 79.6524 0 67.5C0 55.4679 2.29558 44.2781 6.88673 33.9305C11.4779 23.5829 17.8813 15.3409 26.0971 9.20455C34.3128 3.06818 43.616 0 54.0065 0C59.2017 0 63.6721 0.782086 67.4175 2.34626C71.2837 3.7901 75.3916 5.95588 79.7411 8.84358C82.52 10.6484 84.5739 11.5508 85.9029 11.5508C87.4736 11.5508 88.8026 10.4078 89.89 8.12165L92.9709 1.44384H98.9515V53.4225H93.3333C89.1046 38.1417 83.6677 26.4104 77.0227 18.2286C70.4984 9.92647 62.8263 5.7754 54.0065 5.7754C46.6365 5.7754 40.8975 8.48262 36.7896 13.897C32.8026 19.1912 30.8091 28.0348 30.8091 40.4278V94.5722C30.8091 117.674 37.4542 129.225 50.7443 129.225C57.027 129.225 62.1618 126.578 66.1489 121.283C70.1359 115.989 72.1294 109.793 72.1294 102.694V77.9679C72.1294 76.2834 71.8274 75.1404 71.2233 74.5388C70.6192 73.9372 69.4714 73.6364 67.7799 73.6364H51.8317V67.861H112V73.6364H103.301C101.73 73.6364 100.583 73.9372 99.8576 74.5388C99.2535 75.1404 98.9515 76.2834 98.9515 77.9679V134.098H93.1521L88.8026 117.674C88.4401 116.471 87.8964 115.448 87.1715 114.606C86.4466 113.643 85.5405 113.162 84.4531 113.162C82.2783 113.162 80.4056 114.425 78.8349 116.952C75.8145 121.524 71.8878 125.675 67.055 129.405C62.2222 133.135 56.7853 135 50.7443 135Z" fill="black"/>
</svg>
