<svg width="346" height="116" viewBox="0 0 346 116" fill="none" xmlns="http://www.w3.org/2000/svg">
<path d="M3.48298 50.7081L23.1615 48.9085L23.5479 53.1339L8.69849 54.4919L11.1606 81.4141L6.33149 81.8557L3.48298 50.7081Z" fill="black"/>
<path d="M41.6344 47.5234C43.0831 47.391 44.4716 47.4872 45.7999 47.8121C47.1281 48.137 48.2406 48.7656 49.1375 49.6981C50.0344 50.6305 50.5619 51.962 50.7202 53.6924C50.871 55.3423 50.4383 56.8225 49.4219 58.1328C48.4055 59.4431 47.0287 60.5835 45.2914 61.5539C43.5504 62.4842 41.6758 63.2846 39.6676 63.9552C37.6594 64.6258 35.7188 65.1482 33.8458 65.5223C34.074 68.0174 34.5068 70.0879 35.1443 71.7339C35.822 73.3763 36.7026 74.574 37.7859 75.327C38.8693 76.0801 40.1957 76.3849 41.7651 76.2414C42.9321 76.1346 44.0753 75.7663 45.1944 75.1365C46.3539 74.5029 47.429 73.6133 48.4199 72.4676C49.4071 71.2817 50.266 69.8032 50.9968 68.032L53.0937 68.9968C52.1583 71.1924 51.1092 73.0333 49.9466 74.5193C48.784 76.0053 47.4675 77.1401 45.9972 77.9239C44.5268 78.7076 42.8661 79.1841 41.015 79.3534C37.1919 79.703 34.2664 78.7735 32.2384 76.5648C30.2066 74.3159 29.0123 71.2396 28.6553 67.3361C28.4418 65.0021 28.5357 62.7008 28.937 60.4323C29.3382 58.1637 30.0633 56.109 31.1123 54.2682C32.1577 52.3871 33.5599 50.8589 35.319 49.6836C37.0745 48.468 39.1796 47.7479 41.6344 47.5234ZM40.977 49.6531C39.1259 49.8224 37.6537 50.586 36.5605 51.9439C35.5076 53.2981 34.7493 54.9906 34.2858 57.0214C33.8625 59.0485 33.6697 61.1559 33.7075 63.3437C35.8146 62.867 37.8008 62.1781 39.6662 61.2771C41.5316 60.3761 43.0365 59.3051 44.181 58.0643C45.3218 56.7831 45.8222 55.378 45.6824 53.8488C45.5646 52.561 45.1031 51.5076 44.2977 50.6885C43.5327 49.8657 42.4257 49.5206 40.977 49.6531Z" fill="black"/>
<path d="M90.7546 42.4835L93.6252 73.8725L85.1743 74.6454L83.9046 60.7618L67.6065 62.2523L68.8762 76.1359L60.4253 76.9087L57.5547 45.5197L66.0056 44.7468L67.22 58.0268L83.5182 56.5363L82.3037 43.2563L90.7546 42.4835Z" fill="black"/>
<path d="M114.965 72.6514C112.712 72.8574 110.665 72.6592 108.824 72.0565C106.984 71.4538 105.375 70.5053 103.999 69.2109C102.619 67.8762 101.495 66.2341 100.627 64.2846C99.795 62.2911 99.2651 60.0469 99.0369 57.5518C98.8088 55.0568 98.9246 52.7738 99.3845 50.7028C99.8809 48.5879 100.688 46.7691 101.807 45.2465C102.922 43.6837 104.33 42.4391 106.031 41.5125C107.732 40.586 109.709 40.0197 111.962 39.8136C114.256 39.6038 116.305 39.8222 118.109 40.4688C119.953 41.1117 121.525 42.1042 122.825 43.4462C124.121 44.7479 125.137 46.3188 125.873 48.1586C126.65 49.9948 127.137 51.9994 127.336 54.1725L127.562 56.6474L106.013 58.6182L106.106 59.6444C106.327 62.0589 107.214 63.9865 108.766 65.4272C110.354 66.8239 112.477 67.4008 115.133 67.1579C117.064 66.9813 118.655 66.4097 119.906 65.4431C121.157 64.4766 122.179 63.2266 122.972 61.6933L127.183 65.1429C126.192 67.1812 124.644 68.8851 122.537 70.2546C120.427 71.5838 117.903 72.3827 114.965 72.6514ZM112.432 44.9445C111.305 45.0475 110.277 45.3444 109.348 45.8352C108.459 46.3222 107.706 46.9592 107.088 47.7462C106.51 48.5294 106.086 49.4406 105.816 50.4798C105.546 51.519 105.466 52.6422 105.576 53.8495L105.615 54.272L120.223 52.9361L120.168 52.3325C119.947 49.9179 119.147 48.0433 117.767 46.7087C116.383 45.3338 114.605 44.7457 112.432 44.9445Z" fill="black"/>
<path d="M135.361 85.5771L135.196 83.7662C136.323 83.6632 137.072 83.2091 137.445 82.404C137.858 81.5952 138.066 80.5415 138.069 79.2427C138.116 77.9804 138.128 76.5591 138.105 74.9786C138.07 71.492 138.047 68.1261 138.034 64.8809C138.058 61.5919 138.069 58.6083 138.067 55.9302C138.103 53.2082 138.114 50.8941 138.102 48.988C138.09 47.0819 138.049 45.7466 137.979 44.982C137.906 44.1771 137.759 43.4601 137.539 42.831C137.356 42.1579 136.862 41.8581 136.057 41.9317C135.413 41.9906 134.709 42.5014 133.945 43.464C133.221 44.4229 132.655 45.9964 132.246 48.1845L130.462 47.9824C130.517 47.247 130.683 46.3999 130.96 45.4412C131.275 44.4386 131.711 43.4451 132.27 42.4606C132.83 41.4762 133.545 40.6398 134.415 39.9515C135.285 39.2632 136.324 38.8639 137.531 38.7535C139.342 38.5879 140.608 39.1213 141.33 40.3539C142.088 41.5425 142.544 42.9819 142.699 44.6721C142.809 45.8794 142.821 47.116 142.734 48.3819C142.683 49.6039 142.599 50.6868 142.483 51.6308L142.664 51.6143C143.452 47.8089 144.343 44.9072 145.337 42.9091C146.372 40.9073 147.483 39.5274 148.672 38.7694C149.857 37.9712 151.033 37.5187 152.2 37.412C154.051 37.2427 155.63 37.6462 156.936 38.6223C158.239 39.5582 159.253 40.8857 159.979 42.6048C160.744 44.3203 161.225 46.2445 161.42 48.3773C161.777 52.2808 161.407 55.7841 160.311 58.8872C159.256 61.9865 157.477 64.5028 154.976 66.4359C152.511 68.325 149.327 69.4481 145.423 69.8051C144.9 69.8529 144.395 69.8788 143.909 69.8827C143.462 69.8829 143.016 69.8832 142.57 69.8834C142.648 72.9602 142.702 75.3291 142.732 76.9901C142.807 78.6877 142.838 79.9224 142.828 80.6944C142.861 81.5029 142.838 82.134 142.757 82.5877C143.398 82.4886 144.018 82.3913 144.618 82.2959C145.262 82.237 145.904 82.158 146.544 82.0589L146.77 84.5338L135.361 85.5771ZM146.262 67.6589C147.952 67.5043 149.41 67.026 150.635 66.2242C151.86 65.4223 152.864 64.4175 153.646 63.2097C154.465 61.958 155.09 60.5821 155.521 59.0818C155.951 57.5816 156.218 56.0558 156.319 54.5045C156.457 52.9093 156.46 51.3873 156.328 49.9386C156.159 48.0874 155.885 46.4284 155.507 44.9615C155.126 43.4544 154.593 42.2858 153.909 41.4557C153.224 40.6255 152.318 40.262 151.192 40.365C150.105 40.4644 149.072 41.1473 148.092 42.4137C147.112 43.6801 146.25 45.3415 145.504 47.3981C144.755 49.4143 144.127 51.6427 143.62 54.0833C143.113 56.5238 142.79 58.9881 142.653 61.476C142.573 62.376 142.517 63.3145 142.484 64.2913C142.488 65.2243 142.498 66.2176 142.513 67.2712C143.175 67.4136 143.796 67.5394 144.374 67.6489C144.988 67.7144 145.618 67.7177 146.262 67.6589Z" fill="black"/>
<path d="M266.396 58.7418C264.505 58.9148 263.171 58.5296 262.395 57.5861C261.659 56.6389 261.206 55.2397 261.037 53.3886C260.934 52.2618 260.913 50.9246 260.974 49.377C261.076 47.8257 261.189 46.172 261.312 44.4158C261.435 42.6596 261.517 40.887 261.556 39.0979C261.636 37.3052 261.602 35.6039 261.455 33.9942C261.41 33.5113 261.282 32.9955 261.07 32.4469C260.857 31.8982 260.531 31.441 260.092 31.0754C259.649 30.6696 259.025 30.5034 258.22 30.577C257.094 30.6801 256.035 31.3044 255.044 32.4501C254.053 33.5958 253.176 35.0963 252.412 36.9516C251.648 38.8069 251.004 40.8542 250.478 43.0935C249.989 45.289 249.648 47.552 249.456 49.8826C249.259 52.173 249.255 54.3443 249.443 56.3967C249.498 57.0003 249.549 57.5637 249.597 58.0869C249.682 58.5661 249.768 59.0654 249.856 59.5849L244.785 60.0486C244.719 59.7706 244.677 59.531 244.659 59.3298C244.637 59.0883 244.611 58.8066 244.582 58.4847C244.442 56.9555 244.377 55.1354 244.387 53.0244C244.437 50.9097 244.501 48.7328 244.581 46.4937C244.7 44.2509 244.77 42.1344 244.791 40.1441C244.852 38.1502 244.806 36.5313 244.651 35.2874C244.549 34.607 244.279 33.8809 243.844 33.1092C243.408 32.3375 242.606 32.005 241.439 32.1117C240.312 32.2147 239.254 32.8391 238.263 33.9848C237.312 35.1268 236.455 36.6254 235.691 38.4807C234.928 40.336 234.283 42.3833 233.758 44.6227C233.228 46.8218 232.867 49.0866 232.675 51.4172C232.478 53.7076 232.474 55.879 232.662 57.9313C232.717 58.535 232.768 59.0984 232.816 59.6215C232.901 60.1008 232.987 60.6001 233.075 61.1196L228.004 61.5833C227.938 61.3053 227.896 61.0657 227.878 60.8644C227.856 60.623 227.83 60.3413 227.801 60.0194C227.738 59.3352 227.686 58.5487 227.646 57.6597C227.641 56.7267 227.652 55.5084 227.677 54.0047C227.738 52.4571 227.793 50.4028 227.843 47.8418C227.908 45.4417 227.96 43.5703 227.999 42.2276C228.039 40.8849 228.068 39.8678 228.086 39.1763C228.1 38.4446 228.09 37.8976 228.057 37.5354C228.061 37.1293 228.042 36.7049 228.002 36.2623C227.936 35.5379 227.778 34.9234 227.529 34.4186C227.276 33.8736 226.808 33.6324 226.124 33.695C225.48 33.7538 224.776 34.2646 224.012 35.2272C223.247 36.1898 222.661 37.7652 222.252 39.9532L220.529 39.7456C220.584 39.0102 220.75 38.1631 221.027 37.2045C221.341 36.2018 221.778 35.2083 222.337 34.2238C222.896 33.2394 223.611 32.403 224.482 31.7147C225.352 31.0264 226.391 30.6271 227.598 30.5167C228.926 30.3952 229.943 30.6471 230.65 31.2724C231.352 31.8574 231.854 32.6839 232.155 33.7521C232.492 34.7763 232.677 35.9158 232.711 37.1707C232.774 38.3012 232.758 39.4591 232.663 40.6446C232.565 41.7898 232.474 42.7923 232.391 43.6521L232.572 43.6355C233.524 39.8557 234.536 36.9429 235.607 34.8972C236.718 32.8478 237.844 31.4057 238.985 30.5709C240.167 29.7325 241.301 29.2636 242.387 29.1642C243.997 29.017 245.299 29.2834 246.295 29.9633C247.327 30.5994 248.092 31.4221 248.59 32.4316C249.088 33.4411 249.383 34.4489 249.475 35.455C249.578 36.5818 249.586 37.5549 249.499 38.3745C249.411 39.1941 249.257 40.385 249.034 41.9473L249.215 41.9308C250.208 38.1473 251.262 35.251 252.377 33.2418C253.529 31.1887 254.697 29.7631 255.882 28.9649C257.067 28.1667 258.202 27.7179 259.289 27.6185C260.899 27.4713 262.199 27.7175 263.191 28.3573C264.183 28.997 264.915 29.9039 265.388 31.0781C265.897 32.2083 266.216 33.4776 266.345 34.8861C266.547 37.0995 266.594 39.3879 266.486 41.7514C266.373 44.0746 266.226 46.2387 266.045 48.2437C265.899 50.2048 265.88 51.7689 265.987 52.9359C266.053 53.6603 266.192 54.2968 266.405 54.8455C266.658 55.3905 267.146 55.6298 267.871 55.5636C268.555 55.501 269.281 55.0085 270.048 54.0862C270.813 53.1236 271.397 51.5281 271.802 49.2998L273.531 49.5678C273.473 50.2629 273.286 51.1118 272.972 52.1145C272.658 53.1171 272.222 54.1106 271.662 55.0951C271.099 56.0393 270.383 56.8555 269.512 57.5438C268.642 58.2321 267.603 58.6314 266.396 58.7418Z" fill="black"/>
<path d="M292.055 56.4562C289.881 56.6549 287.855 56.4548 285.974 55.8558C284.133 55.2531 282.525 54.3046 281.148 53.0102C279.768 51.6755 278.644 50.0335 277.776 48.0839C276.904 46.0941 276.354 43.8517 276.126 41.3567C275.898 38.8616 276.034 36.5768 276.534 34.5021C277.031 32.3872 277.838 30.5684 278.957 29.0459C280.072 27.483 281.48 26.2384 283.18 25.3118C284.921 24.3816 286.878 23.8171 289.052 23.6184C291.225 23.4197 293.231 23.6216 295.072 24.2243C296.953 24.8233 298.583 25.7901 299.963 27.1248C301.34 28.4192 302.464 30.0613 303.336 32.0511C304.204 34.0006 304.752 36.2229 304.98 38.7179C305.208 41.213 305.074 43.5179 304.578 45.6329C304.077 47.7075 303.27 49.5263 302.155 51.0891C301.036 52.6117 299.606 53.8381 297.865 54.7683C296.165 55.6948 294.228 56.2575 292.055 56.4562ZM291.558 51.0235C293.811 50.8174 295.56 49.9676 296.803 48.4743C298.042 46.9407 298.535 44.7855 298.281 42.0088L297.795 36.6968C297.541 33.92 296.668 31.9101 295.174 30.667C293.677 29.3837 291.802 28.845 289.548 29.0511C287.295 29.2572 285.548 30.1271 284.309 31.6607C283.066 33.1541 282.571 35.2891 282.825 38.0658L283.311 43.3778C283.565 46.1545 284.44 48.1846 285.937 49.4679C287.431 50.711 289.304 51.2296 291.558 51.0235Z" fill="black"/>
<path d="M310.876 22.3529L317.456 21.7512L317.93 26.9425L318.232 26.9149C318.743 24.9609 319.718 23.411 321.155 22.2651C322.628 21.0753 324.412 20.3847 326.504 20.1933C330.488 19.8289 333.699 20.9961 336.137 23.6948C338.572 26.3533 340.026 30.2782 340.501 35.4695C340.976 40.6607 340.259 44.8044 338.351 47.9006C336.439 50.9566 333.491 52.6667 329.507 53.0311C327.415 53.2224 325.536 52.8667 323.871 51.964C322.246 51.0575 321.007 49.71 320.153 47.9214L319.851 47.949L321.43 65.213L314.851 65.8147L310.876 22.3529ZM326.996 47.5391C329.29 47.3293 331.055 46.4375 332.291 44.8636C333.523 43.2495 334.029 41.2352 333.808 38.8207L333.311 33.3879C333.09 30.9734 332.229 29.1043 330.729 27.7807C329.224 26.4169 327.325 25.8399 325.031 26.0496C323.019 26.2336 321.375 26.8912 320.099 28.0224C318.819 29.1134 318.252 30.4637 318.4 32.0734L319.382 42.8181C319.529 44.4278 320.333 45.6731 321.793 46.554C323.25 47.3947 324.984 47.7231 326.996 47.5391Z" fill="black"/>
<path d="M175.582 67.8125L174.922 60.0857L168.201 60.66L167.541 52.9331L174.262 52.3588L173.601 44.632L200.484 42.3346L199.823 34.6078L172.941 36.9051L172.281 29.1782L205.884 26.3066L206.544 34.0334L213.265 33.4591L215.906 64.3665L175.582 67.8125ZM181.642 59.5113L201.804 57.7883L201.144 50.0615L180.982 51.7845L181.642 59.5113Z" fill="black"/>
</svg>
