<svg width="85" height="86" viewBox="0 0 85 86" fill="none" xmlns="http://www.w3.org/2000/svg">
<path d="M85 43.2748C85 66.6264 66.0698 85.5565 42.7183 85.5565C19.3667 85.5565 0.436523 66.6264 0.436523 43.2748C0.436523 19.9232 19.3667 0.993042 42.7183 0.993042C66.0698 0.993042 85 19.9232 85 43.2748Z" fill="black"/>
<path fill-rule="evenodd" clip-rule="evenodd" d="M42.7183 80.2648C63.1473 80.2648 79.7083 63.7038 79.7083 43.2748C79.7083 22.8458 63.1473 6.28475 42.7183 6.28475C22.2892 6.28475 5.72823 22.8458 5.72823 43.2748C5.72823 63.7038 22.2892 80.2648 42.7183 80.2648ZM42.7183 85.5565C66.0698 85.5565 85 66.6264 85 43.2748C85 19.9232 66.0698 0.993042 42.7183 0.993042C19.3667 0.993042 0.436523 19.9232 0.436523 43.2748C0.436523 66.6264 19.3667 85.5565 42.7183 85.5565Z" fill="black"/>
<path d="M37.3718 85.5565C63.6759 85.5565 84.9995 66.6264 84.9995 43.2748C84.9995 19.9232 63.6759 0.993042 37.3718 0.993042V85.5565Z" fill="white"/>
<path fill-rule="evenodd" clip-rule="evenodd" d="M42.6635 79.9824C64.0089 77.6821 79.7078 61.6417 79.7078 43.2748C79.7078 24.9079 64.0089 8.86753 42.6635 6.56722V79.9824ZM42.6635 85.2985C40.9261 85.469 39.1605 85.5565 37.3718 85.5565V0.993042C39.1605 0.993042 40.9261 1.08057 42.6635 1.25107C66.4773 3.58794 84.9995 21.5111 84.9995 43.2748C84.9995 65.0385 66.4773 82.9616 42.6635 85.2985Z" fill="black"/>
</svg>
