<svg width="134" height="135" viewBox="0 0 134 135" fill="none" xmlns="http://www.w3.org/2000/svg">
<path d="M131 67.3005C131 102.813 102.212 131.601 66.6995 131.601V3C102.212 3 131 31.7883 131 67.3005Z" fill="black"/>
<path fill-rule="evenodd" clip-rule="evenodd" d="M69.6995 6.07212C102.161 7.63645 128 34.451 128 67.3005C128 100.15 102.161 126.964 69.6995 128.529V6.07212ZM134 67.3005C134 30.1314 103.869 0 66.6995 0H63.6995V134.601H66.6995C103.869 134.601 134 104.469 134 67.3005Z" fill="black"/>
<path d="M3 67.3005C3 102.813 31.7883 131.601 67.3005 131.601V3C31.7883 3 3 31.7883 3 67.3005Z" fill="white"/>
<path fill-rule="evenodd" clip-rule="evenodd" d="M64.3005 6.07212C31.8386 7.63645 6 34.451 6 67.3005C6 100.15 31.8386 126.964 64.3005 128.529V6.07212ZM0 67.3005C0 30.1314 30.1314 0 67.3005 0H70.3005V134.601H67.3005C30.1314 134.601 0 104.469 0 67.3005Z" fill="black"/>
</svg>
