<svg width="45" height="75" viewBox="0 0 45 75" fill="none" xmlns="http://www.w3.org/2000/svg">
<path d="M29.5833 75C27.5 75 25.7292 74.3439 24.2708 73.0318C22.8125 71.7196 22.0833 69.6133 22.0833 66.7127C22.0833 64.779 22.5694 62.5 23.5417 59.8757C23.6111 59.5994 23.7847 58.9779 24.0625 58.011C24.4097 56.9751 24.5833 55.9738 24.5833 55.0069C24.5833 53.4876 24.2708 52.3481 23.6458 51.5884C23.0208 50.7597 21.7361 50.3453 19.7917 50.3453H13.5417L6.875 73.7569H0L18.9583 4.76519C19.0972 4.21271 19.1667 3.8674 19.1667 3.72928C19.1667 2.90055 18.5417 2.48619 17.2917 2.48619H8.125L8.85417 0H27.2917L14.1667 47.8591H20.7292C22.5347 47.8591 24.2014 46.547 25.7292 43.9227C27.2569 41.2983 28.5764 38.1561 29.6875 34.4959C30.5903 31.5262 31.8403 29.4544 33.4375 28.2804C35.0347 27.1064 36.7361 26.5193 38.5417 26.5193C39.5139 26.5193 40.4514 26.761 41.3542 27.2445C42.2569 27.7279 42.9167 28.2459 43.3333 28.7983C44.0278 29.6961 44.4792 30.5249 44.6875 31.2845C44.8958 32.0442 45 32.942 45 33.9779C45 35.8425 44.4792 37.3964 43.4375 38.6395C42.4653 39.8135 41.25 40.4006 39.7917 40.4006C38.8194 40.4006 37.9514 40.0898 37.1875 39.4682C36.4236 38.8467 36.0417 37.9834 36.0417 36.8785C36.0417 35.9116 36.3542 34.9793 36.9792 34.0815C37.4653 33.3218 37.7083 32.7348 37.7083 32.3204C37.7083 31.768 37.5694 31.3536 37.2917 31.0773C37.0139 30.8011 36.4931 30.663 35.7292 30.663C34.7569 30.663 33.9931 31.0083 33.4375 31.6989C32.8819 32.3895 32.3958 33.3909 31.9792 34.703C31.0764 37.6726 29.9306 40.6077 28.5417 43.5083C27.1528 46.4088 25.7986 48.1008 24.4792 48.5843L24.375 49.1022C26.1806 49.2403 27.7778 50.0345 29.1667 51.4848C30.5556 52.866 31.25 54.6961 31.25 56.9751C31.25 58.7707 30.8333 61.0497 30 63.8122C29.4444 66.0221 29.1667 67.5069 29.1667 68.2666C29.1667 69.0953 29.3403 69.8204 29.6875 70.442C30.0347 71.0635 30.5903 71.3743 31.3542 71.3743C31.7708 71.3743 32.1528 71.3053 32.5 71.1671C32.8472 71.029 33.3333 70.7182 33.9583 70.2348C35.7639 68.9227 37.2569 67.058 38.4375 64.6409C39.6181 62.1547 40.9722 58.9088 42.5 54.9033L44.5833 55.5249C40.0694 68.5083 35.0694 75 29.5833 75Z" fill="black"/>
</svg>
