<svg width="113" height="136" viewBox="0 0 113 136" fill="none" xmlns="http://www.w3.org/2000/svg">
<path d="M57 132.654H43.3258V81.1836H4.59839V65.4957V3.59863H30.7992H57H83.2007H109.402V65.4957V81.1836H70.6741V132.654H57Z" fill="black"/>
<path fill-rule="evenodd" clip-rule="evenodd" d="M1.59839 0.598633H112.402V84.1836H73.6741V135.654H40.3258V84.1836H1.59839V0.598633ZM46.3258 84.1836V129.654H67.6741V84.1836H46.3258ZM7.59839 6.59863V62.4957H106.402V6.59863H86.2007V30.6843H80.2007V6.59863H60V44.2271H54V6.59863H33.7992V30.6843H27.7992V6.59863H7.59839ZM106.402 68.4957H7.59839V78.1836H106.402V68.4957Z" fill="black"/>
<path fill-rule="evenodd" clip-rule="evenodd" d="M28.2184 30.8385V0H34.2184V30.8385H28.2184ZM54 44.4561V0H60V44.4561H54ZM79.7816 30.8385V0H85.7816V30.8385H79.7816ZM113 68.8422H0V62.8422H113V68.8422ZM74 90.5H40V84H74V90.5Z" fill="white"/>
</svg>
