<svg width="146" height="169" viewBox="0 0 146 169" fill="none" xmlns="http://www.w3.org/2000/svg">
<path d="M17.4984 166V75.9124H3V57.7368H143V75.9124H131.673V166H17.4984Z" fill="white"/>
<path d="M17.4984 75.9124V166H131.673V75.9124M17.4984 75.9124H33.8091H50.1197M17.4984 75.9124H3V57.7368H143V75.9124H131.673M131.673 75.9124H115.589H99.5049M50.1197 75.9124V103.176C50.1197 103.176 50.1197 116.215 62.3527 116.215C74.5858 116.215 74.5858 103.176 74.5858 103.176V86.9758C74.5858 86.9758 74.5858 101.595 87.0453 101.595C99.5049 101.595 99.5049 86.9758 99.5049 86.9758V75.9124M50.1197 75.9124H99.5049" stroke="black" stroke-width="6"/>
<path d="M16.5924 57.3414C16.5924 57.3414 16.5924 4 74.5859 4C132.579 4 132.579 57.3414 132.579 57.3414" stroke="black" stroke-width="7"/>
</svg>
