<svg width="262" height="55" viewBox="0 0 262 55" fill="none" xmlns="http://www.w3.org/2000/svg">
<path d="M0.72229 0.466125H33.4546V42.7757H25.4534V7.55814H8.72353V42.7757H0.72229V0.466125Z" fill="black"/>
<path d="M51.5242 43.7456C49.3016 43.7456 47.362 43.4021 45.7051 42.7151C44.0887 42.0281 42.836 41.1189 41.947 39.9874C41.0984 38.8155 40.6942 37.583 40.7347 36.2899C40.8155 35.4008 41.0984 34.6533 41.5833 34.0471C42.1086 33.4005 42.8158 33.0772 43.7048 33.0772C44.7555 33.0368 45.4627 33.3601 45.8264 34.0471C46.2305 34.6937 46.4123 35.2796 46.3719 35.8049C46.3315 36.209 46.2305 36.6334 46.0688 37.0779C45.9476 37.482 45.7051 37.8659 45.3414 38.2296C45.988 39.3206 46.8164 40.1086 47.8267 40.5936C48.8369 41.0381 50.0694 41.2603 51.5242 41.2603C53.3831 41.2603 55.0601 40.7552 56.5553 39.7449C58.0909 38.6943 59.3436 37.2193 60.3135 35.32C61.2833 33.4207 61.8288 31.178 61.9501 28.5917C62.1925 23.7829 61.6874 20.2066 60.4347 17.8628C59.2224 15.4786 57.3433 14.2865 54.7974 14.2865C53.0194 14.2865 51.4636 14.6703 50.1301 15.4381C48.8369 16.2059 47.8065 17.2162 47.0387 18.4689C46.3113 19.6812 45.8668 20.9946 45.7051 22.4089H43.7654L44.3716 11.8012H46.9174L46.6144 14.2865C48.15 13.357 49.5845 12.67 50.9181 12.2255C52.292 11.7406 53.7872 11.4981 55.4036 11.4981C57.707 11.4981 59.7881 12.0639 61.647 13.1954C63.5059 14.2865 64.9606 15.9837 66.0113 18.2871C67.062 20.5501 67.5065 23.4798 67.3448 27.0763C67.2236 29.9455 66.4962 32.6529 65.1627 35.1988C63.8292 37.7446 62.0107 39.8056 59.7073 41.3816C57.4039 42.9576 54.6762 43.7456 51.5242 43.7456ZM48.1297 28.5917L48.3116 26.1065H63.223L63.1018 28.4705L48.1297 28.5917Z" fill="black"/>
<path d="M73.4935 11.2557H81.9797V22.1665C81.9797 24.1466 82.5455 25.662 83.6769 26.7126C84.8084 27.7229 86.6673 28.228 89.2536 28.228H97.1336V11.2557H105.62V42.7757H97.1336V32.4711H89.2536C86.4653 32.4711 84.0608 32.2286 82.0403 31.7437C80.0602 31.2588 78.4236 30.5718 77.1305 29.6828C75.8777 28.7938 74.9483 27.7229 74.3421 26.4702C73.7764 25.177 73.4935 23.7425 73.4935 22.1665V11.2557Z" fill="black"/>
<path d="M175.394 43.5031C173.212 43.5031 171.212 43.1192 169.393 42.3514C167.615 41.5836 166.1 40.4925 164.847 39.0782C163.594 37.6234 162.625 35.8858 161.938 33.8652C161.251 31.8043 160.907 29.5211 160.907 27.0157C160.907 24.5103 161.251 22.2473 161.938 20.2268C162.625 18.1658 163.594 16.4282 164.847 15.0138C166.1 13.5591 167.615 12.4478 169.393 11.68C171.212 10.9122 173.212 10.5283 175.394 10.5283C177.576 10.5283 179.557 10.9122 181.335 11.68C183.153 12.4478 184.689 13.5591 185.941 15.0138C187.194 16.4282 188.164 18.1658 188.851 20.2268C189.538 22.2473 189.881 24.5103 189.881 27.0157C189.881 29.5211 189.538 31.8043 188.851 33.8652C188.164 35.8858 187.194 37.6234 185.941 39.0782C184.689 40.4925 183.153 41.5836 181.335 42.3514C179.557 43.1192 177.576 43.5031 175.394 43.5031ZM175.394 38.0477C177.657 38.0477 179.476 37.3607 180.85 35.9868C182.224 34.5724 182.911 32.4711 182.911 29.6828V24.3486C182.911 21.5603 182.224 19.4792 180.85 18.1052C179.476 16.6909 177.657 15.9837 175.394 15.9837C173.131 15.9837 171.313 16.6909 169.939 18.1052C168.565 19.4792 167.878 21.5603 167.878 24.3486V29.6828C167.878 32.4711 168.565 34.5724 169.939 35.9868C171.313 37.3607 173.131 38.0477 175.394 38.0477Z" fill="black"/>
<path d="M197.243 11.2557H203.85V16.4686H204.154C204.84 14.5693 205.952 13.1146 207.487 12.1043C209.063 11.0536 210.902 10.5283 213.003 10.5283C217.004 10.5283 220.095 11.9831 222.278 14.8926C224.46 17.7617 225.551 21.8028 225.551 27.0157C225.551 32.2286 224.46 36.2899 222.278 39.1994C220.095 42.0685 217.004 43.5031 213.003 43.5031C210.902 43.5031 209.063 42.9778 207.487 41.9271C205.952 40.8764 204.84 39.4217 204.154 37.5628H203.85V54.8988H197.243V11.2557ZM211.003 37.8053C213.306 37.8053 215.145 37.0779 216.519 35.6231C217.893 34.1279 218.58 32.168 218.58 29.7434V24.288C218.58 21.8634 217.893 19.9237 216.519 18.4689C215.145 16.9737 213.306 16.2261 211.003 16.2261C208.983 16.2261 207.285 16.7313 205.911 17.7415C204.537 18.7114 203.85 20.0045 203.85 21.6209V32.4105C203.85 34.0269 204.537 35.3402 205.911 36.3505C207.285 37.3203 208.983 37.8053 211.003 37.8053Z" fill="black"/>
<path d="M254.937 43.4425C253.563 43.4425 252.452 42.9172 251.603 41.8665C250.795 40.8158 250.249 38.6943 249.966 35.5019C249.724 32.6327 249.259 30.6728 248.572 29.6222C247.885 28.5311 246.814 27.9855 245.36 27.9855L238.874 28.0462L238.934 26.2883H246.996V26.8339C249.623 26.8339 251.482 27.5208 252.573 28.8948C253.704 30.2687 254.371 31.966 254.573 33.9865C254.775 36.0878 255.018 37.6032 255.301 38.5326C255.624 39.4621 256.23 39.9672 257.119 40.048C257.766 40.0884 258.331 39.846 258.816 39.3206C259.301 38.7953 259.726 37.785 260.089 36.2899L261.786 36.5929C261.544 37.7244 261.14 38.8155 260.574 39.8662C260.008 40.9169 259.261 41.7857 258.331 42.4726C257.442 43.1192 256.311 43.4425 254.937 43.4425ZM234.51 42.7757C234.469 42.5333 234.449 42.2302 234.449 41.8665C234.489 41.5028 234.51 41.0785 234.51 40.5936C234.55 39.1388 234.651 37.5628 234.813 35.8656C234.974 34.1279 235.176 32.3903 235.419 30.6526C235.661 28.8746 235.883 27.1773 236.086 25.5609C236.328 23.9445 236.53 22.51 236.692 21.2572C236.853 19.9641 236.954 18.9943 236.995 18.3477C237.035 17.5395 236.995 16.7515 236.874 15.9837C236.752 15.2159 236.267 14.832 235.419 14.832C234.772 14.832 234.004 15.2765 233.115 16.1655C232.267 17.0546 231.519 18.5699 230.873 20.7117L229.175 20.348C229.337 19.6206 229.62 18.7922 230.024 17.8628C230.428 16.8929 230.953 15.9433 231.6 15.0138C232.287 14.0844 233.095 13.3166 234.025 12.7105C234.954 12.1043 236.025 11.8012 237.237 11.8012C239.5 11.8012 240.834 12.6902 241.238 14.4683C241.682 16.2059 241.662 18.6508 241.177 21.8028C240.814 24.187 240.51 26.3287 240.268 28.228C240.066 30.0869 239.884 31.7437 239.722 33.1985C239.601 34.6128 239.52 35.8454 239.48 36.896C239.44 37.9063 239.419 38.7549 239.419 39.4419C239.419 39.9268 239.419 40.4521 239.419 41.0179C239.46 41.5836 239.5 42.1696 239.541 42.7757H234.51ZM242.511 27.3794V26.2883C244.289 26.2883 245.703 25.8034 246.754 24.8335C247.805 23.8637 248.774 22.1665 249.663 19.7418C250.714 16.8727 251.825 14.832 252.997 13.6197C254.21 12.4074 255.745 11.8012 257.604 11.8012C258.655 11.8012 259.483 12.1043 260.089 12.7105C260.695 13.3166 260.999 14.1248 260.999 15.1351C260.999 15.9433 260.756 16.6707 260.271 17.3172C259.786 17.9234 259.079 18.2265 258.15 18.2265C257.139 18.2265 256.351 18.0042 255.786 17.5597C255.22 17.1152 254.897 16.4888 254.816 15.6806C254.25 16.0443 253.745 16.61 253.3 17.3778C252.856 18.1052 252.351 19.2367 251.785 20.7723C251.098 22.712 250.169 24.3082 248.997 25.5609C247.865 26.7732 246.612 27.3794 245.238 27.3794H242.511Z" fill="black"/>
<path d="M115.088 42.7758V1.73407H149.726V9.94242H155.499V18.1508H149.726V26.3591H155.499V34.5675H149.726V42.7758H115.088ZM126.634 18.1508H143.953V9.94242H126.634V18.1508ZM126.634 34.5675H143.953V26.3591H126.634V34.5675Z" fill="black"/>
</svg>
