<svg width="543" height="209" viewBox="0 0 543 209" fill="none" xmlns="http://www.w3.org/2000/svg">
<rect x="8.16321" y="133.39" width="308.687" height="49.9752" transform="rotate(3.24209 8.16321 133.39)" fill="#FF6100"/>
<path d="M31.0882 169.11C30.0016 169.048 29.0419 168.809 28.209 168.392C27.3761 167.975 26.6879 167.41 26.1442 166.698C25.6017 165.967 25.2027 165.107 24.9472 164.119C24.6928 163.112 24.5996 162.007 24.6678 160.804C24.7359 159.601 24.9527 158.523 25.3181 157.57C25.6846 156.598 26.1782 155.789 26.7988 155.143C27.4204 154.478 28.1686 153.985 29.0432 153.664C29.9179 153.344 30.8985 153.215 31.9851 153.276C33.4986 153.362 34.7212 153.772 35.6529 154.506C36.5846 155.24 37.2418 156.183 37.6243 157.333L34.9356 158.407C34.7617 157.697 34.4146 157.122 33.8944 156.684C33.3947 156.227 32.7083 155.974 31.8351 155.925C30.6709 155.859 29.7671 156.178 29.1238 156.881C28.5011 157.566 28.1567 158.49 28.0907 159.655L27.9374 162.361C27.8715 163.526 28.1087 164.493 28.649 165.263C29.2099 166.015 30.0724 166.424 31.2366 166.49C32.168 166.543 32.918 166.362 33.4866 165.946C34.0756 165.512 34.5565 164.926 34.9293 164.188L37.2725 165.606C36.6976 166.819 35.887 167.727 34.8407 168.33C33.7943 168.932 32.5435 169.192 31.0882 169.11Z" fill="black"/>
<path d="M45.842 169.945C44.7942 169.886 43.8442 169.647 42.9919 169.229C42.159 168.812 41.461 168.247 40.898 167.534C40.336 166.801 39.9176 165.941 39.6427 164.952C39.3689 163.943 39.2661 162.838 39.3342 161.635C39.4024 160.432 39.6289 159.354 40.0137 158.403C40.3996 157.432 40.9125 156.624 41.5525 155.979C42.1936 155.315 42.9515 154.822 43.8261 154.502C44.7202 154.183 45.6911 154.053 46.7389 154.112C47.7867 154.171 48.727 154.41 49.5599 154.827C50.4122 155.245 51.1193 155.82 51.6812 156.553C52.2443 157.266 52.6627 158.127 52.9365 159.135C53.2114 160.124 53.3148 161.22 53.2467 162.423C53.1785 163.626 52.9515 164.713 52.5656 165.684C52.1807 166.635 51.6678 167.443 51.0267 168.108C50.3867 168.753 49.6197 169.235 48.7257 169.554C47.851 169.874 46.8898 170.005 45.842 169.945ZM45.9904 167.326C47.077 167.387 47.9688 167.107 48.6659 166.485C49.3641 165.843 49.7511 164.853 49.827 163.514L49.9721 160.953C50.0479 159.614 49.7747 158.596 49.1523 157.899C48.531 157.182 47.6771 156.793 46.5905 156.732C45.5039 156.67 44.6115 156.96 43.9133 157.602C43.2162 158.224 42.8297 159.205 42.7539 160.544L42.6088 163.105C42.533 164.444 42.8057 165.471 43.4269 166.188C44.0493 166.885 44.9038 167.264 45.9904 167.326Z" fill="black"/>
<path d="M60.8777 170.797C59.3642 170.711 58.1367 170.389 57.1951 169.829C56.2535 169.27 55.4598 168.505 54.814 167.534L56.9877 165.759C57.4149 166.464 57.9571 167.031 58.6142 167.457C59.2908 167.885 60.0947 168.125 61.0261 168.178C62.1127 168.239 62.9192 168.09 63.4457 167.731C63.9916 167.372 64.2821 166.883 64.3173 166.262L64.3371 165.912C64.3723 165.292 64.1852 164.814 63.7759 164.479C63.3871 164.126 62.8047 163.928 62.0285 163.884L58.7687 163.699L58.9006 161.371L61.8402 161.537C62.6164 161.581 63.2164 161.469 63.6404 161.201C64.0849 160.915 64.3236 160.481 64.3566 159.899L64.3747 159.578C64.4066 159.016 64.199 158.556 63.752 158.2C63.305 157.844 62.577 157.637 61.568 157.58C60.656 157.528 59.8695 157.669 59.2083 158.001C58.547 158.333 58.0048 158.799 57.5816 159.398L55.6997 157.569C56.3323 156.709 57.1486 156.045 58.1485 155.576C59.1688 155.089 60.4261 154.887 61.9201 154.972C63.9381 155.086 65.4108 155.549 66.3381 156.361C67.2859 157.154 67.7246 158.172 67.6543 159.414C67.5993 160.384 67.3042 161.126 66.769 161.641C66.2348 162.137 65.4577 162.453 64.4377 162.59L64.4295 162.735C65.5278 162.934 66.3413 163.349 66.8699 163.983C67.4179 164.617 67.665 165.41 67.6112 166.361C67.5265 167.855 66.8779 168.996 65.6654 169.784C64.4722 170.573 62.8763 170.91 60.8777 170.797Z" fill="black"/>
<path d="M69.2715 168.324L71.1052 168.427C71.7174 167.586 72.216 166.515 72.6012 165.213C73.0069 163.892 73.2648 162.262 73.3747 160.322L73.6203 155.985L84.6804 156.612L83.9698 169.156L86.5311 169.301L86.1536 175.966L83.2721 175.803L83.5029 171.728L72.0063 171.077L71.7754 175.152L68.894 174.989L69.2715 168.324ZM80.7973 168.976L81.3612 159.022L76.5006 158.747L76.3917 160.668C76.2763 162.705 76.0363 164.366 75.6716 165.649C75.308 166.914 74.9113 167.903 74.4814 168.619L80.7973 168.976Z" fill="black"/>
<path d="M100.356 172.683C99.522 172.636 98.8949 172.367 98.475 171.876C98.0562 171.365 97.8192 170.739 97.7639 169.996L97.6184 169.988C97.2735 170.922 96.6992 171.61 95.8956 172.051C95.0919 172.492 94.1371 172.681 93.0311 172.618C91.4594 172.529 90.2698 172.053 89.4622 171.19C88.674 170.328 88.3189 169.208 88.3969 167.83C88.4827 166.317 89.0903 165.212 90.2197 164.517C91.3686 163.823 93.0006 163.536 95.1156 163.656L97.8515 163.811L97.924 162.53C97.9768 161.599 97.7652 160.866 97.2893 160.333C96.8134 159.8 96.0418 159.504 94.9746 159.443C94.082 159.393 93.3434 159.545 92.7587 159.902C92.174 160.258 91.6706 160.726 91.2485 161.305L89.4539 159.481C90.0067 158.656 90.7545 157.997 91.6973 157.505C92.6411 156.994 93.8504 156.781 95.3251 156.864C97.2848 156.975 98.7628 157.516 99.7589 158.488C100.755 159.459 101.205 160.798 101.108 162.506L100.678 170.103L102.279 170.193L102.132 172.784L100.356 172.683ZM94.0702 170.254C95.0598 170.31 95.8869 170.143 96.5514 169.752C97.217 169.342 97.5707 168.768 97.6124 168.031L97.7361 165.848L95.0584 165.696C92.8657 165.572 91.731 166.189 91.654 167.547L91.6244 168.071C91.5859 168.751 91.7799 169.277 92.2064 169.652C92.6534 170.008 93.2747 170.209 94.0702 170.254Z" fill="black"/>
<path d="M106.098 157.825L109.213 158.001L108.794 165.394L108.3 168.958L108.417 168.964L110.404 165.836L116.082 158.39L118.963 158.554L118.106 173.688L114.991 173.512L115.41 166.119L115.904 162.556L115.788 162.549L113.8 165.678L108.123 173.123L105.241 172.96L106.098 157.825ZM112.674 156.183C111.509 156.117 110.591 155.831 109.919 155.326C109.267 154.802 108.761 154.112 108.401 153.254L107.892 151.941L110.541 151.04L111.383 153.715C111.573 153.784 111.794 153.846 112.044 153.899C112.313 153.953 112.564 153.987 112.797 154C113.03 154.013 113.274 154.007 113.528 153.983C113.802 153.959 114.038 153.924 114.235 153.877L115.373 151.313L117.904 152.508L117.249 153.756C116.795 154.567 116.204 155.195 115.478 155.641C114.773 156.068 113.838 156.249 112.674 156.183Z" fill="black"/>
<path d="M135.345 175.015C134.258 174.954 133.299 174.715 132.466 174.298C131.633 173.88 130.945 173.316 130.401 172.604C129.859 171.872 129.46 171.013 129.204 170.025C128.95 169.018 128.856 167.913 128.925 166.71C128.993 165.507 129.21 164.429 129.575 163.476C129.941 162.504 130.435 161.695 131.056 161.049C131.677 160.383 132.425 159.89 133.3 159.57C134.175 159.25 135.155 159.12 136.242 159.182C137.755 159.268 138.978 159.678 139.91 160.412C140.841 161.146 141.499 162.088 141.881 163.239L139.192 164.313C139.019 163.602 138.671 163.028 138.151 162.59C137.652 162.133 136.965 161.88 136.092 161.831C134.928 161.765 134.024 162.083 133.381 162.787C132.758 163.472 132.414 164.396 132.348 165.56L132.194 168.267C132.128 169.431 132.366 170.399 132.906 171.169C133.467 171.921 134.329 172.33 135.493 172.396C136.425 172.449 137.175 172.267 137.743 171.852C138.332 171.418 138.813 170.832 139.186 170.094L141.529 171.511C140.954 172.725 140.144 173.633 139.098 174.235C138.051 174.838 136.8 175.098 135.345 175.015Z" fill="black"/>
<path d="M145.209 160.04L153.271 160.497C154.571 160.571 155.551 160.977 156.21 161.715C156.888 162.454 157.194 163.406 157.128 164.57C157.021 166.471 155.941 167.491 153.889 167.627L153.881 167.773C155.098 167.939 155.98 168.349 156.527 169.003C157.094 169.639 157.35 170.451 157.294 171.441C157.258 172.081 157.117 172.667 156.873 173.198C156.648 173.73 156.33 174.189 155.919 174.575C155.529 174.942 155.055 175.227 154.498 175.429C153.943 175.611 153.326 175.684 152.647 175.645L144.352 175.175L145.209 160.04ZM152.056 173.188C152.619 173.22 153.073 173.1 153.42 172.827C153.766 172.555 153.955 172.137 153.987 171.575L154.031 170.789C154.063 170.226 153.922 169.79 153.609 169.48C153.297 169.151 152.859 168.971 152.297 168.939L147.843 168.686L147.603 172.936L152.056 173.188ZM152.013 166.733C152.556 166.763 152.981 166.651 153.287 166.396C153.594 166.141 153.761 165.761 153.79 165.257L153.831 164.529C153.86 164.024 153.736 163.628 153.461 163.34C153.185 163.052 152.775 162.892 152.232 162.862L148.186 162.632L147.967 166.504L152.013 166.733Z" fill="black"/>
<path d="M166.755 176.795C165.707 176.735 164.757 176.497 163.905 176.078C163.072 175.661 162.374 175.096 161.811 174.383C161.249 173.65 160.831 172.79 160.556 171.801C160.282 170.793 160.179 169.687 160.247 168.484C160.315 167.281 160.542 166.204 160.927 165.252C161.313 164.281 161.825 163.473 162.465 162.828C163.107 162.164 163.864 161.671 164.739 161.351C165.633 161.032 166.604 160.902 167.652 160.961C168.7 161.021 169.64 161.259 170.473 161.676C171.325 162.094 172.032 162.669 172.594 163.402C173.157 164.115 173.576 164.976 173.849 165.984C174.124 166.973 174.228 168.069 174.16 169.272C174.091 170.475 173.864 171.562 173.478 172.533C173.094 173.484 172.581 174.292 171.94 174.957C171.3 175.602 170.533 176.084 169.639 176.403C168.764 176.723 167.803 176.854 166.755 176.795ZM166.903 174.175C167.99 174.237 168.882 173.956 169.579 173.334C170.277 172.692 170.664 171.702 170.74 170.363L170.885 167.802C170.961 166.463 170.688 165.445 170.065 164.748C169.444 164.031 168.59 163.642 167.503 163.581C166.417 163.519 165.524 163.809 164.826 164.451C164.129 165.073 163.743 166.054 163.667 167.393L163.522 169.954C163.446 171.293 163.719 172.321 164.34 173.037C164.962 173.734 165.817 174.114 166.903 174.175Z" fill="black"/>
<path d="M178.123 161.905L181.237 162.081L180.819 169.474L180.325 173.037L180.441 173.044L182.429 169.916L188.106 162.47L190.988 162.633L190.131 177.768L187.016 177.592L187.435 170.199L187.929 166.636L187.812 166.629L185.825 169.758L180.147 177.203L177.266 177.04L178.123 161.905ZM184.698 160.262C183.534 160.197 182.616 159.911 181.944 159.406C181.292 158.882 180.786 158.192 180.426 157.334L179.916 156.021L182.566 155.12L183.407 157.795C183.598 157.864 183.819 157.925 184.069 157.979C184.338 158.033 184.589 158.066 184.822 158.08C185.055 158.093 185.299 158.087 185.553 158.063C185.827 158.039 186.062 158.004 186.26 157.957L187.398 155.393L189.929 156.588L189.274 157.835C188.819 158.647 188.229 159.275 187.503 159.721C186.797 160.148 185.863 160.328 184.698 160.262Z" fill="black"/>
<path d="M199.678 175.71L201.512 175.814C202.124 174.973 202.622 173.901 203.008 172.6C203.413 171.279 203.671 169.649 203.781 167.709L204.027 163.372L215.087 163.999L214.376 176.543L216.937 176.688L216.56 183.353L213.678 183.19L213.909 179.115L202.413 178.464L202.182 182.539L199.3 182.376L199.678 175.71ZM211.204 176.363L211.768 166.409L206.907 166.134L206.798 168.055C206.683 170.092 206.443 171.753 206.078 173.036C205.714 174.3 205.318 175.29 204.888 176.006L211.204 176.363Z" fill="black"/>
<path d="M220.531 164.307L223.645 164.483L223.226 171.876L222.733 175.44L222.849 175.446L224.836 172.318L230.514 164.872L233.395 165.036L232.538 180.171L229.424 179.994L229.843 172.601L230.336 169.038L230.22 169.031L228.232 172.16L222.555 179.605L219.674 179.442L220.531 164.307Z" fill="black"/>
<path d="M241.764 181.044C240.25 180.958 239.023 180.635 238.081 180.076C237.14 179.516 236.346 178.751 235.7 177.78L237.874 176.005C238.301 176.711 238.843 177.277 239.5 177.703C240.177 178.131 240.981 178.371 241.912 178.424C242.999 178.486 243.805 178.337 244.332 177.977C244.878 177.619 245.168 177.129 245.203 176.508L245.223 176.159C245.258 175.538 245.071 175.06 244.662 174.726C244.273 174.373 243.691 174.174 242.915 174.13L239.655 173.946L239.787 171.617L242.726 171.784C243.503 171.828 244.103 171.716 244.527 171.448C244.971 171.161 245.21 170.727 245.243 170.145L245.261 169.825C245.293 169.262 245.085 168.803 244.638 168.446C244.191 168.09 243.463 167.883 242.454 167.826C241.542 167.775 240.756 167.915 240.094 168.247C239.433 168.58 238.891 169.046 238.468 169.644L236.586 167.815C237.219 166.956 238.035 166.291 239.035 165.822C240.055 165.335 241.312 165.134 242.806 165.218C244.824 165.333 246.297 165.796 247.224 166.607C248.172 167.401 248.611 168.418 248.54 169.66C248.486 170.63 248.19 171.373 247.655 171.888C247.121 172.383 246.344 172.699 245.324 172.836L245.316 172.981C246.414 173.18 247.227 173.596 247.756 174.229C248.304 174.864 248.551 175.656 248.497 176.607C248.413 178.101 247.764 179.242 246.552 180.03C245.358 180.819 243.762 181.157 241.764 181.044Z" fill="black"/>
<path d="M263.023 181.897C262.189 181.85 261.562 181.581 261.142 181.09C260.723 180.58 260.486 179.953 260.431 179.21L260.285 179.202C259.94 180.136 259.366 180.824 258.562 181.265C257.759 181.706 256.804 181.895 255.698 181.833C254.126 181.744 252.937 181.268 252.129 180.404C251.341 179.542 250.986 178.422 251.064 177.045C251.149 175.531 251.757 174.427 252.887 173.731C254.035 173.037 255.667 172.75 257.782 172.87L260.518 173.025L260.591 171.744C260.644 170.813 260.432 170.081 259.956 169.548C259.48 169.015 258.709 168.718 257.641 168.657C256.749 168.607 256.01 168.76 255.426 169.116C254.841 169.472 254.337 169.94 253.915 170.519L252.121 168.695C252.674 167.87 253.421 167.211 254.364 166.72C255.308 166.209 256.517 165.995 257.992 166.079C259.952 166.19 261.43 166.731 262.426 167.702C263.422 168.673 263.872 170.013 263.775 171.72L263.345 179.317L264.945 179.408L264.799 181.998L263.023 181.897ZM256.737 179.468C257.727 179.524 258.554 179.357 259.218 178.966C259.884 178.556 260.237 177.983 260.279 177.245L260.403 175.062L257.725 174.911C255.533 174.787 254.398 175.404 254.321 176.762L254.291 177.286C254.253 177.965 254.447 178.492 254.873 178.866C255.32 179.222 255.941 179.423 256.737 179.468Z" fill="black"/>
<path d="M268.765 167.039L271.88 167.216L271.461 174.608L270.967 178.172L271.083 178.179L273.071 175.05L278.748 167.605L281.63 167.768L280.773 182.903L277.658 182.726L278.077 175.334L278.571 171.77L278.454 171.764L276.467 174.892L270.789 182.337L267.908 182.174L268.765 167.039ZM275.34 165.397C274.176 165.331 273.258 165.045 272.586 164.54C271.934 164.017 271.428 163.326 271.068 162.469L270.559 161.155L273.208 160.254L274.049 162.93C274.24 162.999 274.461 163.06 274.711 163.113C274.98 163.167 275.231 163.201 275.464 163.214C275.697 163.227 275.941 163.222 276.195 163.197C276.469 163.174 276.704 163.138 276.902 163.091L278.04 160.528L280.571 161.722L279.916 162.97C279.461 163.781 278.871 164.41 278.145 164.855C277.44 165.282 276.505 165.463 275.34 165.397Z" fill="black"/>
<path d="M286.16 168.025L289.333 168.204L288.988 174.287L295.508 174.657L295.852 168.574L299.025 168.753L298.168 183.888L294.995 183.708L295.361 177.247L288.842 176.878L288.476 183.339L285.303 183.159L286.16 168.025Z" fill="black"/>
<rect x="38.5981" y="14" width="310.654" height="67.561" fill="#FFD101"/>
<rect x="141.632" y="86.254" width="394.873" height="67.561" transform="rotate(-4.96157 141.632 86.254)" fill="#FFD101"/>
</svg>
