<svg width="50" height="83" viewBox="0 0 50 83" fill="none" xmlns="http://www.w3.org/2000/svg">
<path d="M3.80952 79.6513H18.2143C19.1667 79.6513 19.881 79.452 20.3571 79.0533C20.8333 78.6547 21.1905 77.9769 21.4286 77.0202C22.4603 73.3525 24.0873 67.3727 26.3095 59.0807C28.5317 50.8684 30.1984 44.6892 31.3095 40.5432L30.9524 40.304C29.0476 44.3703 26.5476 47.9981 23.4524 51.1873C20.4365 54.3766 17.0635 55.9712 13.3333 55.9712C9.12699 55.9712 5.83333 54.4962 3.45238 51.5461C1.15079 48.5163 0 44.5298 0 39.5865C0 34.8026 0.873016 30.0985 2.61905 25.4741C4.44444 20.7699 6.38889 16.7834 8.45238 13.5144C11.0714 9.28866 14.1667 5.97983 17.7381 3.5879C21.3889 1.19596 25.0397 0 28.6905 0C31.2302 0 33.4921 1.0365 35.4762 3.10951C37.4603 5.10279 38.7698 8.33189 39.4048 12.7968H40L47.8571 1.43516H50L29.5238 77.0202C29.4444 77.2594 29.4048 77.6181 29.4048 78.0965C29.4048 79.133 30.119 79.6513 31.5476 79.6513H40.3571L39.4048 83H2.85714L3.80952 79.6513ZM14.0476 53.1009C16.9841 53.1009 19.8016 51.6258 22.5 48.6758C25.1984 45.646 27.6984 41.6196 30 36.5965C31.5873 33.0086 32.9762 29.0221 34.1667 24.6369C35.3571 20.2517 35.9524 16.6638 35.9524 13.8732C35.9524 10.365 35.2381 7.65418 33.8095 5.74064C32.381 3.82709 30.4365 2.87032 27.9762 2.87032C25.5159 2.87032 23.1746 4.22575 20.9524 6.9366C18.7302 9.64746 16.8254 12.757 15.2381 16.2651C13.254 20.7301 11.627 25.4741 10.3571 30.4971C9.16667 35.5202 8.57143 40.1446 8.57143 44.3703C8.57143 46.7622 8.96826 48.8353 9.76191 50.5893C10.6349 52.2637 12.0635 53.1009 14.0476 53.1009Z" fill="black"/>
</svg>
