<svg width="125" height="139" viewBox="0 0 125 139" fill="none" xmlns="http://www.w3.org/2000/svg">
<path d="M61.648 90.6951L61.0377 89.9019L60.7699 90.8662L53.3018 117.751L38.0309 134.5H16.4333C11.507 130.354 5.69142 123.302 3.99025 115.469C3.13462 111.529 3.32024 107.397 5.17544 103.323C7.02661 99.2573 10.5588 95.2082 16.4657 91.4563C21.4098 89.8594 28.9848 86.8296 35.7407 82.8946C39.1328 80.9188 42.3321 78.707 44.8908 76.3237C47.4448 73.9448 49.3932 71.3648 50.2295 68.647L50.2516 68.5752V68.5V60.5V60.3829L50.1996 60.278L22.6612 4.70942L44.3996 9.43516L60.796 45.706L61.22 46.6437L61.6951 45.7309L80.5869 9.43879L102.35 4.70761L73.3022 64.2809L73.1781 64.5352L73.3324 64.7725L79.8324 74.7725L79.873 74.8349L79.93 74.8829C84.1178 78.4006 95.2003 86.0425 106.1 88.4784C114.868 92.1561 121.249 102.688 121.127 112.806C121.065 117.853 119.385 122.772 115.596 126.675C111.81 130.576 105.876 133.505 97.2281 134.499C88.806 134.319 70.7105 126.763 66.7471 97.433L66.7292 97.3009L66.6479 97.1951L61.648 90.6951ZM97.2516 121.5C103.603 121.5 108.752 116.351 108.752 110C108.752 103.649 103.603 98.5 97.2516 98.5C90.9003 98.5 85.7516 103.649 85.7516 110C85.7516 116.351 90.9003 121.5 97.2516 121.5ZM28.2516 121.5C34.6029 121.5 39.7516 116.351 39.7516 110C39.7516 103.649 34.6029 98.5 28.2516 98.5C21.9003 98.5 16.7516 103.649 16.7516 110C16.7516 116.351 21.9003 121.5 28.2516 121.5Z" fill="white" stroke="black"/>
<path d="M62.4675 87C66.4926 97.2134 69.968 126.5 89.4178 134.224C106.468 140.995 120.968 126.217 121.862 115.115C124.087 87.5 98.842 87.5 85.425 79.2721C82.8784 77.7104 79.8344 74.1859 76.5735 69.5M62.4675 87L21.9675 4L44.7837 8.33393C44.7837 8.33393 62.6542 49.4979 76.5735 69.5M62.4675 87L76.5735 69.5M84.9675 110C84.9675 116.627 90.3401 122 96.9675 122C103.595 122 108.968 116.627 108.968 110C108.968 103.373 103.595 98 96.9675 98C90.3401 98 84.9675 103.373 84.9675 110Z" stroke="black" stroke-width="5"/>
<path d="M62.5325 87C58.5074 97.2134 55.0321 126.5 35.5822 134.224C18.5321 140.995 4.03237 126.217 3.13791 115.115C0.912813 87.5 26.158 87.5 39.575 79.2721C42.1216 77.7104 45.1656 74.1859 48.4265 69.5L51.4675 65M62.5325 45.3711C72.092 27.0479 80.2163 8.33393 80.2163 8.33393L103.032 4L73.9994 63.5M39.9675 110C39.9675 116.627 34.595 122 27.9675 122C21.3401 122 15.9675 116.627 15.9675 110C15.9675 103.373 21.3401 98 27.9675 98C34.595 98 39.9675 103.373 39.9675 110Z" stroke="black" stroke-width="5"/>
</svg>
