<svg width="168" height="173" viewBox="0 0 168 173" fill="none" xmlns="http://www.w3.org/2000/svg">
<path d="M7.75429 130.724L69.5 85L112.859 23.9849L147.704 14.8887L85.2742 103.5C78.9945 114.657 49.5384 162.078 49.5384 162.078L7.75429 130.724Z" fill="black"/>
<path fill-rule="evenodd" clip-rule="evenodd" d="M153.632 10.7744L111.367 21.8077L67.7032 83.2523L3.57355 130.742L50.1921 165.723L51.6606 163.359L49.5384 162.078C51.6606 163.359 51.6604 163.36 51.6606 163.359L51.662 163.357L51.9934 162.823C52.2108 162.473 52.5305 161.958 52.9395 161.298C53.7575 159.979 54.9331 158.083 56.3634 155.772C59.2238 151.151 63.1034 144.872 67.1796 138.245C75.2614 125.104 84.163 110.514 87.3887 104.799L153.632 10.7744ZM82.2319 103.825C78.5527 110.188 70.4257 123.503 62.9232 135.701C58.8504 142.324 54.9735 148.598 52.1147 153.216C50.7928 155.352 49.6887 157.134 48.8837 158.432L11.935 130.707L69.074 88.3937L82.2319 103.825ZM72.6665 84.8202L114.35 26.162L141.775 19.0028L85.117 99.4218L72.6665 84.8202Z" fill="black"/>
<path d="M160.246 131.211L101.932 89.5191L55.1411 24.4712L20.2964 15.375L82.7258 103.986C89.0055 115.144 118.462 162.564 118.462 162.564L160.246 131.211Z" fill="black"/>
<path fill-rule="evenodd" clip-rule="evenodd" d="M14.3677 11.2607L56.6246 22.2919L103.71 87.7489L164.474 131.193L117.808 166.21L116.339 163.846L118.462 162.564C116.339 163.846 116.34 163.846 116.339 163.846L116.338 163.843L116.007 163.31C115.895 163.13 115.757 162.908 115.594 162.644C115.438 162.394 115.26 162.106 115.061 161.785C114.242 160.466 113.067 158.569 111.637 156.258C108.776 151.637 104.897 145.358 100.82 138.731C92.7386 125.59 83.837 111.001 80.6113 105.286L14.3677 11.2607ZM85.9868 104.689C89.7619 111.189 97.7196 124.225 105.077 136.188C109.15 142.81 113.027 149.084 115.885 153.703C117.207 155.838 118.311 157.62 119.116 158.918L156.017 131.229L102.012 92.6177L85.9868 104.689ZM98.4791 88.9605L53.6576 26.6504L26.2251 19.4892L83.2512 100.431L98.4791 88.9605Z" fill="black"/>
<path d="M91 85.5C91 89.0899 88.0899 92 84.5 92C80.9101 92 78 89.0899 78 85.5C78 81.9101 80.9101 79 84.5 79C88.0899 79 91 81.9101 91 85.5Z" fill="white"/>
<path fill-rule="evenodd" clip-rule="evenodd" d="M86.5388 55.5088L82.4616 58.4916L101.436 84.5815L83.5541 110.553L65.0901 83.0824L60.9101 85.9182L83.446 119.447L107.564 84.4184L86.5388 55.5088Z" fill="white"/>
<path fill-rule="evenodd" clip-rule="evenodd" d="M127.791 141.53L110.791 123.03L115.209 118.97L132.209 137.47L127.791 141.53Z" fill="white"/>
<path fill-rule="evenodd" clip-rule="evenodd" d="M42.209 142.03L59.209 123.53L54.791 119.47L37.791 137.97L42.209 142.03Z" fill="white"/>
</svg>
