<svg width="97" height="115" viewBox="0 0 97 115" fill="none" xmlns="http://www.w3.org/2000/svg">
<path d="M64.431 2.43396L58.3357 75.978L47.3041 75.0637L53.3994 1.51966L64.431 2.43396Z" fill="black"/>
<path fill-rule="evenodd" clip-rule="evenodd" d="M57.5296 75.0262L63.4792 3.24005L54.2055 2.47145L48.2559 74.2576L57.5296 75.0262ZM64.431 2.43396L53.3994 1.51966L47.3041 75.0637L58.3357 75.978L64.431 2.43396Z" fill="black"/>
<path d="M29.7971 2.89648L38.0641 76.2282L49.0639 74.9881L40.7969 1.65644L29.7971 2.89648Z" fill="black"/>
<path d="M37.909 76.0732L29.4224 2.646H41.2298L48.2405 65.7418L53.4062 2.646H64.4756L58.5719 76.0732H37.909Z" fill="white"/>
<path fill-rule="evenodd" clip-rule="evenodd" d="M26.4526 0.00012207H43.5975L47.8409 38.1908L50.9676 0.00012207H67.3422L61.0131 78.7191H35.5508L26.4526 0.00012207ZM32.3912 5.29183L40.2661 73.4274H56.1298L61.608 5.29183H55.8438L50.877 65.9576L45.6103 66.0339L38.8611 5.29183H32.3912Z" fill="black"/>
<path fill-rule="evenodd" clip-rule="evenodd" d="M61.9577 85.0474C60.8045 88.6758 62.8112 92.552 66.4396 93.7052C70.0681 94.8583 73.9443 92.8517 75.0974 89.2232C76.2506 85.5948 74.2439 81.7185 70.6155 80.5654C66.987 79.4123 63.1108 81.4189 61.9577 85.0474ZM61.8986 107.994C50.3785 104.333 44.0076 92.0263 47.6687 80.5063C51.3298 68.9863 63.6365 62.6154 75.1566 66.2765C86.6766 69.9375 93.0475 82.2443 89.3864 93.7643C85.7253 105.284 73.4186 111.655 61.8986 107.994Z" fill="black"/>
<path fill-rule="evenodd" clip-rule="evenodd" d="M21.3691 85.0474C20.216 88.6758 22.2226 92.552 25.8511 93.7052C29.4795 94.8583 33.3557 92.8517 34.5089 89.2232C35.662 85.5948 33.6554 81.7185 30.0269 80.5654C26.3985 79.4123 22.5222 81.4189 21.3691 85.0474ZM21.31 107.994C9.78999 104.333 3.41907 92.0263 7.08017 80.5063C10.7413 68.9863 23.048 62.6154 34.568 66.2765C46.088 69.9375 52.4589 82.2443 48.7978 93.7643C45.1367 105.284 32.83 111.655 21.31 107.994Z" fill="black"/>
<path fill-rule="evenodd" clip-rule="evenodd" d="M57.7543 83.7118C55.8635 89.6613 59.1538 96.0171 65.1033 97.9079C71.0528 99.7986 77.4085 96.5084 79.2993 90.5589C81.1901 84.6094 77.8998 78.2536 71.9503 76.3628C66.0008 74.4721 59.645 77.7623 57.7543 83.7118ZM63.2334 103.792C54.0344 100.868 48.9471 91.0409 51.8706 81.842C54.7941 72.643 64.6212 67.5557 73.8202 70.4792C83.0191 73.4026 88.1065 83.2298 85.183 92.4287C82.2595 101.628 72.4324 106.715 63.2334 103.792Z" fill="white"/>
<path fill-rule="evenodd" clip-rule="evenodd" d="M17.1663 83.7118C15.2755 89.6613 18.5658 96.0171 24.5152 97.9079C30.4647 99.7986 36.8205 96.5084 38.7113 90.5589C40.6021 84.6094 37.3118 78.2536 31.3623 76.3628C25.4128 74.4721 19.057 77.7623 17.1663 83.7118ZM22.6454 103.792C13.4464 100.868 8.35913 91.0409 11.2826 81.842C14.206 72.643 24.0332 67.5557 33.2322 70.4792C42.4311 73.4026 47.5184 83.2298 44.595 92.4287C41.6715 101.628 31.8444 106.715 22.6454 103.792Z" fill="white"/>
</svg>
