<svg width="140" height="102" viewBox="0 0 140 102" fill="none" xmlns="http://www.w3.org/2000/svg">
<path d="M15.7396 13.5534C14.7272 10.4795 13.2544 8.19726 11.3215 6.70685C9.38856 5.21644 6.48915 4.47123 2.62327 4.47123H0V0H44.8718V4.47123H40.8678C39.5792 4.47123 38.5207 4.93699 37.6923 5.86849C36.9559 6.8 36.5878 7.96438 36.5878 9.36164C36.5878 10.4795 36.8179 11.6438 37.2781 12.8548L54.6745 66.6493L67.6529 21.937L64.6154 12.5753C63.6029 9.50137 62.2682 7.40548 60.6114 6.28767C59.0467 5.07671 56.7456 4.47123 53.7081 4.47123H51.3609V0H96.6469V4.47123H89.8817C88.593 4.47123 87.5345 4.89041 86.7061 5.72877C85.8777 6.56712 85.4635 7.49863 85.4635 8.52329C85.4635 9.45479 85.6016 10.4795 85.8777 11.5973L103.412 66.0904L115.976 20.1205C116.16 19.4685 116.344 18.3507 116.529 16.7671C116.805 15.0904 116.943 13.6932 116.943 12.5753C116.943 10.526 116.344 8.66301 115.148 6.98629C114.043 5.30959 112.202 4.47123 109.625 4.47123H102.722V0H140V4.47123H135.72C129.553 4.47123 125.135 8.70959 122.465 17.1863L99.1321 102H93.3333L70.6903 31.2986L50.2564 102H44.4576L15.7396 13.5534Z" fill="black"/>
</svg>
