<svg width="178" height="177" viewBox="0 0 178 177" fill="none" xmlns="http://www.w3.org/2000/svg">
<path d="M90.2949 1.79932H87.1323V59.8444H90.2949V1.79932Z" fill="#5EB6CA"/>
<path d="M92.0986 0H85.3203V61.6434H92.0986V0Z" fill="#5EB6CA"/>
<path d="M151.258 28.2826L149.021 26.0525L107.898 67.1134L110.135 69.3435L151.258 28.2826Z" fill="#5EB6CA"/>
<path d="M149.009 23.508L105.336 67.1146L110.131 71.8943L153.804 28.2876L149.009 23.508Z" fill="#5EB6CA"/>
<path d="M175.617 90.0074L175.614 86.8522L117.433 86.8966L117.435 90.0518L175.617 90.0074Z" fill="#5EB6CA"/>
<path d="M177.411 85.0769H115.622V91.8393H177.411V85.0769Z" fill="#5EB6CA"/>
<path d="M149.114 150.843L151.348 148.609L110.161 107.612L107.927 109.846L149.114 150.843Z" fill="#5EB6CA"/>
<path d="M110.162 105.069L105.374 109.856L149.114 153.395L153.902 148.608L110.162 105.069Z" fill="#5EB6CA"/>
<path d="M87.2631 175.193L90.4258 175.188L90.3368 117.143L87.1741 117.148L87.2631 175.193Z" fill="#5EB6CA"/>
<path d="M92.1465 115.346L85.3682 115.357L85.4617 177L92.24 176.99L92.1465 115.346Z" fill="#5EB6CA"/>
<path d="M26.2612 148.798L28.502 151.025L69.5666 109.901L67.3259 107.674L26.2612 148.798Z" fill="#5EB6CA"/>
<path d="M67.3077 105.143L23.6973 148.811L28.499 153.584L72.1094 109.916L67.3077 105.143Z" fill="#5EB6CA"/>
<path d="M1.8111 87.1233L1.81836 90.2784L60.0001 90.1453L59.9929 86.9901L1.8111 87.1233Z" fill="#5EB6CA"/>
<path d="M61.7887 85.1808L0 85.3202L0.0153509 92.0824L61.804 91.9431L61.7887 85.1808Z" fill="#5EB6CA"/>
<path d="M28.2107 26.2405L25.9805 28.4775L67.2313 69.4109L69.4616 67.1739L28.2107 26.2405Z" fill="#5EB6CA"/>
<path d="M28.2097 23.6894L23.4297 28.4839L67.2378 71.9548L72.0178 67.1603L28.2097 23.6894Z" fill="#5EB6CA"/>
<path d="M88.5261 102.539C96.0565 102.539 102.161 96.4491 102.161 88.9364C102.161 81.4236 96.0565 75.3334 88.5261 75.3334C80.9957 75.3334 74.8911 81.4236 74.8911 88.9364C74.8911 96.4491 80.9957 102.539 88.5261 102.539Z" fill="#5EB6CA"/>
</svg>
