<svg width="210" height="210" viewBox="0 0 210 210" fill="none" xmlns="http://www.w3.org/2000/svg">
<path d="M106.881 2.13458H103.137V71.0015H106.881V2.13458Z" fill="#FF6100"/>
<path d="M109.016 0H100.993V73.1363H109.016V0Z" fill="#FF6100"/>
<path d="M179.043 33.5561L176.395 30.9103L127.718 79.6267L130.366 82.2726L179.043 33.5561Z" fill="#FF6100"/>
<path d="M176.38 27.8916L124.686 79.6282L130.362 85.299L182.056 33.5623L176.38 27.8916Z" fill="#FF6100"/>
<path d="M207.876 106.789L207.873 103.045L139.004 103.098L139.007 106.841L207.876 106.789Z" fill="#FF6100"/>
<path d="M210 100.939H136.861V108.962H210V100.939Z" fill="#FF6100"/>
<path d="M176.505 178.966L179.149 176.316L130.397 127.676L127.753 130.326L176.505 178.966Z" fill="#FF6100"/>
<path d="M130.398 124.658L124.731 130.338L176.506 181.994L182.173 176.314L130.398 124.658Z" fill="#FF6100"/>
<path d="M103.293 207.856L107.036 207.85L106.931 138.983L103.187 138.989L103.293 207.856Z" fill="#FF6100"/>
<path d="M109.073 136.851L101.05 136.864L101.161 210L109.185 209.988L109.073 136.851Z" fill="#FF6100"/>
<path d="M31.0862 176.541L33.7385 179.183L82.3466 130.391L79.6943 127.749L31.0862 176.541Z" fill="#FF6100"/>
<path d="M79.6722 124.746L28.0508 176.556L33.7346 182.219L85.356 130.409L79.6722 124.746Z" fill="#FF6100"/>
<path d="M2.14375 103.366L2.15234 107.11L71.0217 106.952L71.0131 103.208L2.14375 103.366Z" fill="#FF6100"/>
<path d="M73.1389 101.062L0 101.227L0.0182184 109.25L73.1572 109.086L73.1389 101.062Z" fill="#FF6100"/>
<path d="M33.3927 31.1329L30.7527 33.787L79.5811 82.352L82.2211 79.6979L33.3927 31.1329Z" fill="#FF6100"/>
<path d="M33.3915 28.1061L27.7334 33.7945L79.589 85.3702L85.2471 79.6818L33.3915 28.1061Z" fill="#FF6100"/>
<path d="M104.788 121.657C113.702 121.657 120.927 114.431 120.927 105.518C120.927 96.6044 113.702 89.3787 104.788 89.3787C95.8742 89.3787 88.6482 96.6044 88.6482 105.518C88.6482 114.431 95.8742 121.657 104.788 121.657Z" fill="#FF6100"/>
</svg>
