<svg width="111" height="130" viewBox="0 0 111 130" fill="none" xmlns="http://www.w3.org/2000/svg">
<path d="M90.9025 85H111C108.526 145.159 2.47353 144.841 0 85H20.4067C20.4067 85 20.4067 109.828 55.6546 109.828C90.9025 109.828 90.9025 85 90.9025 85Z" fill="black"/>
<path d="M90.9025 41H111C108.526 99.8221 2.47353 99.511 0 41H20.4067C20.4067 41 20.4067 65.2759 55.6546 65.2759C90.9025 65.2759 90.9025 41 90.9025 41Z" fill="black"/>
<path d="M90.9025 0H111C108.526 58.8221 2.47353 58.511 0 0H20.4067C20.4067 0 20.4067 24.2759 55.6546 24.2759C90.9025 24.2759 90.9025 0 90.9025 0Z" fill="black"/>
</svg>
